{"title":"The Inflicted (2012) DVDRip - RadioResearch","uid":8509753,"size":975112424,"categoryP":"video","categoryS":"movies","magnet":"?xt=urn:btih:3fe3c4ccd0d99ad7a21f731dc687f1379c343944&amp;dn=The+Inflicted+%282012%29+DVDRip+-+RadioResearch&amp;tr=udp%3A%2F%2Ftracker.openbittorrent.com%3A80&amp;tr=udp%3A%2F%2Fopen.demonii.com%3A1337&amp;tr=udp%3A%2F%2Ftracker.coppersurfer.tk%3A6969&amp;tr=udp%3A%2F%2Fexodus.desync.com%3A6969","seeders":0,"leechers":1,"uploader":"RadioResearch","files":3,"time":1369535803,"description":"*******************************************************************************\n                  The Inflicted (2912) DVDRip - RadioResearch\n*******************************************************************************\n\n-------------------------------------------------------------------------------\n                              General Information\n-------------------------------------------------------------------------------\nType.................: Movie\n\n\n\nVideo Format.........: AVI\nVideo Bitrate........: 1508\nResolution...........: 720 x 404\nColor................: 8 bit\nFPS..................: 23.976\nSource...............: DVD 16x9\nOriginal Format......: NTSC\nGenre................: Horror / Thriller\nIMDb Rating..........: 5.0\nMovie Information....: http://www.imdb.com/title/tt1823231/\n\n-------------------------------------------------------------------------------\n                               Post Information\n-------------------------------------------------------------------------------\nPosted by............: RadioResearch\nPosted on............: 5/25/2013\n\n-------------------------------------------------------------------------------\n                                 Release Notes\n-------------------------------------------------------------------------------\nDavid O'Hara is a troubled medical student who kidnaps, rapes and murders women. \nHe impregnates one of his victims, Melissa Daniels, in an attempt to replace the \nfamily that he lost as a young boy. However, the police rescue Melissa from \nDavid's warehouse, and David goes on a murderous rampage to get his family back.\n\nEnjoy!\nRadioResearch\n\nGeneral\nComplete name                            : G:The Inflicted (2012) DVDRip - \nRadioResearchThe Inflicted - {RadioResearch}.avi\nFormat                                   : AVI\nFormat/Info                              : Audio Video Interleave\nFile size                                : 930 MiB\nDuration                                 : 1h 26mn\nOverall bit rate                         : 1 508 Kbps\nMovie name                               : THE_INFLICTED.Title2.DVDRip\nWriting application                      : Lavf53.32.100\nOriginal source form/Name                : THE_INFLICTED\n\nVideo\nID                                       : 0\nFormat                                   : MPEG-4 Visual\nFormat profile                           : Advanced Simple@L5\nFormat settings, BVOP                    : 2\nFormat settings, QPel                    : No\nFormat settings, GMC                     : No warppoints\nFormat settings, Matrix                  : Default (H.263)\nMuxing mode                              : Packed bitstream\nCodec ID                                 : XVID\nCodec ID/Hint                            : XviD\nDuration                                 : 1h 26mn\nBit rate                                 : 1 049 Kbps\nWidth                                    : 720 pixels\nHeight                                   : 404 pixels\nDisplay aspect ratio                     : 16:9\nFrame rate                               : 23.976 fps\nColor space                              : YUV\nChroma subsampling                       : 4:2:0\nBit depth                                : 8 bits\nScan type                                : Progressive\nCompression mode                         : Lossy\nBits/(Pixel*Frame)                       : 0.150\nStream size                              : 647 MiB (70%)\nWriting library                          : XviD 64\n\nAudio\nID                                       : 1\nFormat                                   : AC-3\nFormat/Info                              : Audio Coding 3\nMode extension                           : CM (complete main)\nFormat settings, Endianness              : Big\nCodec ID                                 : 2000\nDuration                                 : 1h 26mn\nBit rate mode                            : Constant\nBit rate                                 : 448 Kbps\nChannel(s)                               : 6 channels\nChannel positions                        : Front: L C R, Side: L R, LFE\nSampling rate                            : 48.0 KHz\nBit depth                                : 16 bits\nCompression mode                         : Lossy\nStream size                              : 276 MiB (30%)\nAlignment                                : Aligned on interleaves\nInterleave, duration                     : 32 ms (0.77 video frame)\n\nAVI FILE MD5 HASH  7c4294679f8ddd3d3922a37289c9ce89\n\n\n\n-------------------------------------------------------------------------------\nGenerated with Cool NFO Creator - http://fly.to/coolbeans\n-------------------------------------------------------------------------------\n","torrent":{"xt":"urn:btih:3fe3c4ccd0d99ad7a21f731dc687f1379c343944","amp;dn":"The+Inflicted+%282012%29+DVDRip+-+RadioResearch","amp;tr":["udp%3A%2F%2Ftracker.openbittorrent.com%3A80","udp%3A%2F%2Fopen.demonii.com%3A1337","udp%3A%2F%2Ftracker.coppersurfer.tk%3A6969","udp%3A%2F%2Fexodus.desync.com%3A6969"],"infoHash":"3fe3c4ccd0d99ad7a21f731dc687f1379c343944","infoHashBuffer":{"type":"Buffer","data":[63,227,196,204,208,217,154,215,162,31,115,29,198,135,241,55,156,52,57,68]},"announce":[],"urlList":[]}}